Coordinates
version=1
nRows=14
nColumns=40
inDegrees=yes

Units are S.I. units (second, meters, Newtons, ...)
If the header above contains a line with 'inDegrees', this indicates whether rotational values are in degrees (yes) or radians (no).

endheader
time	pelvis_tilt	pelvis_list	pelvis_rotation	pelvis_tx	pelvis_ty	pelvis_tz	hip_flexion_r	hip_adduction_r	hip_rotation_r	knee_angle_r	knee_angle_r_beta	ankle_angle_r	subtalar_angle_r	mtp_angle_r	hip_flexion_l	hip_adduction_l	hip_rotation_l	knee_angle_l	knee_angle_l_beta	ankle_angle_l	subtalar_angle_l	mtp_angle_l	lumbar_extension	lumbar_bending	lumbar_rotation	arm_flex_r	arm_add_r	arm_rot_r	elbow_flex_r	pro_sup_r	wrist_flex_r	wrist_dev_r	arm_flex_l	arm_add_l	arm_rot_l	elbow_flex_l	pro_sup_l	wrist_flex_l	wrist_dev_l
      0.85000000	      3.04322617	     -4.92874349	     84.48258319	      0.25816351	      0.89359682	      1.03805128	    -12.95101549	      4.69129934	     12.34023862	     -0.29076582	     -0.00507482	     16.66306059	     -0.00000000	     -0.00000000	     31.11253201	     -8.91614892	      0.18071774	      0.83853172	      0.01463514	     -3.04633887	      0.00000000	     -0.00000000	     -6.47086857	      3.10260828	      4.05686380	      0.00000000	      0.00000000	     -0.00000000	      0.00000000	      0.00000000	     -0.00000000	      0.00000000	     -0.00000000	      0.00000000	      0.00000000	      0.00000000	      0.00000000	     -0.00000000	      0.00000000
      0.86000000	      3.17315791	     -5.01917297	     84.28660156	      0.25729388	      0.89134057	      1.02713311	    -13.78082686	      4.61017030	     12.71633904	     -0.51093641	     -0.00891752	     17.02647202	      0.00000000	     -0.00000000	     31.01708772	     -8.93661243	      0.57414601	      0.04985043	      0.00087005	     -2.87130058	      0.00000000	     -0.00000000	     -6.30711874	      3.22903257	      4.14559398	     -0.00000000	     -0.00000000	      0.00000000	      0.00000000	      0.00000000	      0.00000000	      0.00000000	      0.00000000	      0.00000000	     -0.00000000	      0.00000000	      0.00000000	      0.00000000	     -0.00000000
      0.87000000	      3.15132975	     -4.98957137	     84.04142811	      0.25633128	      0.88942958	      1.01598114	    -14.67078732	      4.33478749	     12.92118660	     -0.64154523	     -0.01119708	     17.20714807	      0.00000000	      0.00000000	     30.81859343	     -8.78994281	      0.45848693	     -0.34637195	     -0.00604533	     -2.78680989	      0.00000000	      0.00000000	     -6.26995692	      3.17187151	      4.30024581	      0.00000000	      0.00000000	      0.00000000	      0.00000000	      0.00000000	      0.00000000	      0.00000000	      0.00000000	      0.00000000	      0.00000000	      0.00000000	      0.00000000	      0.00000000	      0.00000000
      0.88000000	      3.09100718	     -5.07703683	     83.82228436	      0.25524259	      0.88747313	      1.00481353	    -15.33667811	      4.04062788	     13.06397223	     -0.59787719	     -0.01043493	     17.41421758	      0.00000000	      0.00000000	     30.86957741	     -8.57727318	      0.16338801	     -0.25611781	     -0.00447010	     -2.80083400	      0.00000000	      0.00000000	     -6.08656038	      3.09041319	      4.40061623	      0.00000000	      0.00000000	      0.00000000	      0.00000000	      0.00000000	      0.00000000	      0.00000000	      0.00000000	      0.00000000	      0.00000000	      0.00000000	      0.00000000	      0.00000000	      0.00000000
      0.89000000	      3.11558229	     -5.30704594	     83.57179259	      0.25420341	      0.88554350	      0.99374986	    -15.60608871	      3.88171903	     12.94599867	     -0.11220749	     -0.00195839	     17.15369180	      0.00000000	      0.00000000	     31.08245218	     -8.47255667	      0.06793707	      0.09944346	      0.00173562	     -2.84184366	      0.00000000	      0.00000000	     -5.74715900	      3.10547678	      4.49597932	      0.00000000	      0.00000000	      0.00000000	      0.00000000	      0.00000000	      0.00000000	      0.00000000	      0.00000000	      0.00000000	      0.00000000	      0.00000000	      0.00000000	      0.00000000	      0.00000000
      0.90000000	      2.79535324	     -5.25734510	     83.37954495	      0.25277765	      0.88409730	      0.98207733	    -16.41106703	      3.26696748	     13.24605341	     -0.07309234	     -0.00127570	     17.74074474	      0.00000000	      0.00000000	     31.13076605	     -7.94616327	     -0.82344246	      0.92231482	      0.01609743	     -3.37638186	      0.00000000	      0.00000000	     -5.66701487	      2.72027826	      4.62227852	      0.00000000	      0.00000000	      0.00000000	      0.00000000	      0.00000000	      0.00000000	      0.00000000	      0.00000000	      0.00000000	      0.00000000	      0.00000000	      0.00000000	      0.00000000	      0.00000000
      0.91000000	      2.57181356	     -5.33135839	     83.17052091	      0.25138259	      0.88270866	      0.97051329	    -16.84341972	      2.80323240	     13.29128854	      0.39405147	      0.00687750	     17.81073559	      0.00000000	      0.00000000	     31.30302668	     -7.54554697	     -1.35058582	      1.88655920	      0.03292667	     -3.99602993	      0.00000000	      0.00000000	     -5.45033250	      2.45438959	      4.74172224	      0.00000000	      0.00000000	      0.00000000	      0.00000000	      0.00000000	      0.00000000	      0.00000000	      0.00000000	      0.00000000	      0.00000000	      0.00000000	      0.00000000	      0.00000000	      0.00000000
      0.92000000	      2.34196772	     -5.42152774	     83.00794436	      0.24985059	      0.88148572	      0.95881011	    -17.17781155	      2.34567857	     13.28421043	      0.99050097	      0.01728750	     17.79486320	      0.00000000	     -0.00000000	     31.54121063	     -7.12961389	     -1.73634344	      3.06728118	      0.05353416	     -4.76425192	      0.00000000	     -0.00000000	     -5.20486115	      2.17939008	      4.81776521	      0.00000000	     -0.00000000	      0.00000000	      0.00000000	      0.00000000	     -0.00000000	      0.00000000	     -0.00000000	     -0.00000000	     -0.00000000	      0.00000000	      0.00000000	     -0.00000000	      0.00000000
      0.93000000	      2.07605926	     -5.48978894	     82.79951781	      0.24835531	      0.88056243	      0.94702729	    -17.40400112	      1.84884861	     13.31282402	      1.81340406	      0.03164987	     17.72624556	      0.00000000	      0.00000000	     31.76994108	     -6.72684604	     -2.24729232	      4.37104697	      0.07628916	     -5.78523417	      0.00000000	      0.00000000	     -4.97802700	      1.86096834	      4.89198681	      0.00000000	      0.00000000	      0.00000000	      0.00000000	      0.00000000	      0.00000000	      0.00000000	      0.00000000	      0.00000000	      0.00000000	      0.00000000	      0.00000000	      0.00000000	      0.00000000
      0.94000000	      1.81769542	     -5.54337285	     82.63202316	      0.24673725	      0.87989260	      0.93512910	    -17.55855365	      1.36801134	     13.30680859	      2.76431722	      0.04824644	     17.50927119	      0.00000000	      0.00000000	     31.99591360	     -6.32485582	     -2.55910623	      5.77352604	      0.10076704	     -6.84288912	      0.00000000	      0.00000000	     -4.75302031	      1.55018970	      4.98906365	      0.00000000	      0.00000000	      0.00000000	      0.00000000	      0.00000000	      0.00000000	      0.00000000	      0.00000000	      0.00000000	      0.00000000	      0.00000000	      0.00000000	      0.00000000	      0.00000000
      0.95000000	      1.56607911	     -5.58437785	     82.47958077	      0.24503969	      0.87950193	      0.92314426	    -17.60651113	      0.89966465	     13.28226430	      3.89325713	      0.06795016	     17.13507784	      0.00000000	      0.00000000	     32.20156572	     -5.93542446	     -2.76936487	      7.22992315	      0.12618596	     -7.89369421	      0.00000000	      0.00000000	     -4.54471465	      1.25356681	      5.09045653	      0.00000000	      0.00000000	      0.00000000	      0.00000000	      0.00000000	      0.00000000	      0.00000000	      0.00000000	      0.00000000	      0.00000000	      0.00000000	      0.00000000	      0.00000000	      0.00000000
      0.96000000	      1.33574955	     -5.59839532	     82.35424826	      0.24335164	      0.87944124	      0.91106221	    -17.56862276	      0.46634733	     13.21292623	      5.19401773	      0.09065271	     16.56661885	      0.00000000	      0.00000000	     32.36661565	     -5.57525778	     -2.89033325	      8.73100873	      0.15238485	     -8.81980197	      0.00000000	      0.00000000	     -4.35201499	      0.94981742	      5.15745163	      0.00000000	      0.00000000	      0.00000000	      0.00000000	      0.00000000	      0.00000000	      0.00000000	      0.00000000	      0.00000000	      0.00000000	      0.00000000	      0.00000000	      0.00000000	      0.00000000
      0.97000000	      1.12230266	     -5.58136422	     82.25681059	      0.24156432	      0.87972715	      0.89893457	    -17.43585781	      0.05196636	     13.11751241	      6.66060762	      0.11624953	     15.77578497	      0.00000000	      0.00000000	     32.46790669	     -5.21766846	     -2.90393410	     10.24115362	      0.17874185	     -9.49969204	      0.00000000	      0.00000000	     -4.19947024	      0.67649007	      5.22651355	      0.00000000	      0.00000000	      0.00000000	      0.00000000	      0.00000000	      0.00000000	      0.00000000	      0.00000000	      0.00000000	      0.00000000	      0.00000000	      0.00000000	      0.00000000	      0.00000000
      0.98000000	      0.89020347	     -5.49372687	     82.17838316	      0.23972176	      0.88047699	      0.88668330	    -17.33213848	     -0.37649822	     13.40977065	      8.16146349	      0.14244441	     14.84581652	      0.00000000	      0.00000000	     32.34706495	     -4.79316064	     -2.61250913	     11.55305144	      0.20163879	     -9.80066631	      0.00000000	      0.00000000	     -4.13002478	      0.36443891	      5.28164235	      0.00000000	      0.00000000	      0.00000000	      0.00000000	      0.00000000	      0.00000000	      0.00000000	      0.00000000	      0.00000000	      0.00000000	      0.00000000	      0.00000000	      0.00000000	      0.00000000
